<svg width="23" height="22" viewBox="0 0 23 22" fill="none" xmlns="http://www.w3.org/2000/svg">
<path d="M5.45898 21.8745H0.923828V7.27002H5.45898V21.8745ZM3.18896 5.27783C1.73877 5.27783 0.5625 4.07666 0.5625 2.62646C0.5625 1.92988 0.839216 1.26183 1.33177 0.769274C1.82433 0.276716 2.49238 0 3.18896 0C3.88555 0 4.5536 0.276716 5.04616 0.769274C5.53871 1.26183 5.81543 1.92988 5.81543 2.62646C5.81543 4.07666 4.63867 5.27783 3.18896 5.27783ZM22.4326 21.8745H17.9072V14.7651C17.9072 13.0708 17.873 10.8979 15.5493 10.8979C13.1914 10.8979 12.8301 12.7388 12.8301 14.6431V21.8745H8.29981V7.27002H12.6494V9.26221H12.7129C13.3184 8.11475 14.7974 6.90381 17.0039 6.90381C21.5938 6.90381 22.4375 9.92627 22.4375 13.8521V21.8745H22.4326Z" fill="white"/>
</svg>
