<svg width="621" height="635" viewBox="0 0 621 635" fill="none" xmlns="http://www.w3.org/2000/svg">
<path d="M84.14 132H101.64C102.9 132 104.02 131.02 104.02 129.62V116.6C104.02 115.9 104.44 115.48 105.14 115.48H118.72C119.98 115.48 121.1 114.36 121.1 113.1V101.34C121.1 100.08 119.98 98.96 118.72 98.96H105.14C104.44 98.96 104.02 98.4 104.02 97.84V36.52C104.02 35.12 102.9 34 101.64 34H82.46C82.04 34 81.48 34.28 81.06 34.56L5.88 90C5.18 90.42 4.76 91.12 4.76 91.96V112.96C4.76 114.22 5.88 115.34 7.28 115.34L80.64 115.48C81.2 115.48 81.76 115.9 81.76 116.6V129.62C81.76 131.02 82.74 132 84.14 132ZM24.78 96.44L79.52 56.68C80.5 56.12 81.76 56.68 81.76 57.8V97.56C81.76 98.4 81.06 98.96 80.36 98.96L25.62 98.82C24.36 98.82 23.8 97.14 24.78 96.44Z" fill="white"/>
<path d="M44.86 600.14H93.16C104.22 600.14 112.76 596.92 119.2 590.48C125.64 584.18 128.72 577.04 128.72 568.78V533.36C128.72 524.82 125.64 517.68 119.2 511.52C113.04 505.22 104.22 502 93.16 502H44.86C34.08 502 25.26 505.22 18.82 511.52C12.52 517.82 9.44 525.1 9.44 533.64V568.5C9.44 576.9 12.52 584.04 18.96 590.48C25.54 596.92 34.08 600.14 44.86 600.14ZM86.02 518.8C91.9 518.8 96.8 520.48 100.58 523.84C104.36 527.2 106.32 531.68 106.46 537.42V564.02C106.46 569.62 104.36 574.38 100.58 577.6C96.94 580.96 92.04 582.64 86.02 582.78H52.28C46.54 582.78 41.64 581.1 37.72 577.74C33.94 574.38 31.84 569.76 31.84 564.3V537.28C31.98 531.96 33.94 527.34 37.72 523.84C41.64 520.48 46.54 518.8 52.28 518.8H86.02Z" fill="white"/>
<path d="M579.14 600H596.64C597.9 600 599.02 599.02 599.02 597.62V584.6C599.02 583.9 599.44 583.48 600.14 583.48H613.72C614.98 583.48 616.1 582.36 616.1 581.1V569.34C616.1 568.08 614.98 566.96 613.72 566.96H600.14C599.44 566.96 599.02 566.4 599.02 565.84V504.52C599.02 503.12 597.9 502 596.64 502H577.46C577.04 502 576.48 502.28 576.06 502.56L500.88 558C500.18 558.42 499.76 559.12 499.76 559.96V580.96C499.76 582.22 500.88 583.34 502.28 583.34L575.64 583.48C576.2 583.48 576.76 583.9 576.76 584.6V597.62C576.76 599.02 577.74 600 579.14 600ZM519.78 564.44L574.52 524.68C575.5 524.12 576.76 524.68 576.76 525.8V565.56C576.76 566.4 576.06 566.96 575.36 566.96L520.62 566.82C519.36 566.82 518.8 565.14 519.78 564.44Z" fill="white"/>
<path d="M595.494 50.7002C595.328 46.5614 591.839 43.3404 587.7 43.506L520.254 46.2038C516.115 46.3694 512.894 49.8588 513.06 53.9976C513.225 58.1364 516.715 61.3574 520.854 61.1919L580.806 58.7938L583.204 118.746C583.369 122.885 586.859 126.106 590.998 125.94C595.136 125.775 598.357 122.285 598.192 118.146L595.494 50.7002ZM509.511 147.087L593.511 56.0871L582.489 45.9129L498.489 136.913L509.511 147.087Z" fill="white"/>
</svg>
